<svg xmlns="http://www.w3.org/2000/svg" xmlns:xlink="http://www.w3.org/1999/xlink" width="800" zoomAndPan="magnify" viewBox="0 0 600 599.999999" height="800" preserveAspectRatio="xMidYMid meet" version="1.0"><defs><g/><clipPath id="7f5ccb6261"><rect x="0" width="301" y="0" height="489"/></clipPath><clipPath id="1e10af7609"><path d="M 133.671875 91.445312 L 277.671875 91.445312 L 277.671875 235.445312 L 133.671875 235.445312 Z M 133.671875 91.445312 " clip-rule="nonzero"/></clipPath></defs><rect x="-60" width="720" fill="#ffffff" y="-60" height="719.999999" fill-opacity="1"/><rect x="-60" width="720" fill="#38b695" y="-60" height="719.999999" fill-opacity="1"/><g transform="matrix(1, 0, 0, 1, 157, 68)"><g clip-path="url(#7f5ccb6261)"><g fill="#ffffff" fill-opacity="1"><g transform="translate(0.958768, 393.867659)"><g><path d="M 33.15625 -308.28125 L 282.296875 -308.28125 L 282.296875 -234.34375 L 132.1875 -234.34375 L 132.1875 -181.46875 L 261.234375 -181.46875 L 261.234375 -110.671875 L 132.1875 -110.671875 L 132.1875 0 L 33.15625 0 Z M 33.15625 -308.28125 "/></g></g></g></g></g><g clip-path="url(#1e10af7609)"><path fill="#f5be4a" d="M 205.726562 235.550781 C 196.085938 180.953125 188.273438 173.136719 133.671875 163.5 C 188.273438 153.863281 196.085938 146.046875 205.726562 91.445312 C 215.363281 146.046875 223.179688 153.863281 277.777344 163.5 C 223.179688 173.136719 215.363281 180.953125 205.726562 235.550781 Z M 205.726562 235.550781 " fill-opacity="1" fill-rule="nonzero"/></g></svg>